<svg width="191" height="97" viewBox="0 0 191 97" fill="none" xmlns="http://www.w3.org/2000/svg">
<path d="M23.88 96.616C21 96.616 18.632 95.688 16.776 93.832C14.984 92.04 14.088 89.704 14.088 86.824V57.064C14.088 55.208 13.224 54.28 11.496 54.28H0.456V42.76H11.496C13.224 42.76 14.088 41.832 14.088 39.976V10.216C14.088 7.33599 14.984 4.99999 16.776 3.20799C18.632 1.352 21 0.423996 23.88 0.423996H40.2V10.792H28.392C26.664 10.792 25.8 11.752 25.8 13.672V39.976C25.8 42.152 25.096 43.976 23.688 45.448C22.344 46.92 20.552 47.656 18.312 47.656H16.776V49.384H18.312C20.552 49.384 22.344 50.12 23.688 51.592C25.096 53.064 25.8 54.888 25.8 57.064V83.368C25.8 85.288 26.664 86.248 28.392 86.248H40.2V96.616H23.88ZM91.7258 74.344C84.8138 74.344 79.3098 72.456 75.2138 68.68C71.1818 64.904 69.1658 59.624 69.1658 52.84V46.504H81.8378V52.84C81.8378 55.848 82.6698 58.216 84.3338 59.944C85.9978 61.608 88.3338 62.44 91.3418 62.44C94.1578 62.44 96.3338 61.608 97.8698 59.944C99.4698 58.28 100.27 55.912 100.27 52.84V17.32H88.7498V5.8H120.622V17.32H112.942V52.84C112.942 59.816 111.054 65.16 107.278 68.872C103.502 72.52 98.3178 74.344 91.7258 74.344ZM150.599 96.616V86.248H162.407C164.135 86.248 164.999 85.288 164.999 83.368V57.064C164.999 54.888 165.671 53.064 167.015 51.592C168.423 50.12 170.247 49.384 172.487 49.384H174.023V47.656H172.487C170.247 47.656 168.423 46.92 167.015 45.448C165.671 43.976 164.999 42.152 164.999 39.976V13.672C164.999 11.752 164.135 10.792 162.407 10.792H150.599V0.423996H166.919C169.799 0.423996 172.135 1.352 173.927 3.20799C175.783 4.99999 176.711 7.33599 176.711 10.216V39.976C176.711 41.832 177.575 42.76 179.303 42.76H190.343V54.28H179.303C177.575 54.28 176.711 55.208 176.711 57.064V86.824C176.711 89.704 175.783 92.04 173.927 93.832C172.135 95.688 169.799 96.616 166.919 96.616H150.599Z" fill="#2563EB"/>
</svg>
